PathFileType	4	(X/Y/Z)	C:/Users/beibeiliu/ov580/test_trc/User3\sequence.35_training_dense_right.trc
DataRate	CameraRate	NumFrames	NumMarkers	Units	OrigDataRate	OrigDataStartFrame	OrigNumFrames
120	120	20	19	mm	120	101	267
Frame#	Time	ThumbCMC			ThumbMCP			ThumbIP			ThumbTip			IndexMCP			IndexPIP			IndexTip			MiddleMCP			MiddlePIP			MiddleTip			RingMCP			RingPIP			RingTip			PinkyMCP			PinkyPIP			PinkyTip			BackHand1			BackHand2			BackHand3	
		X0	Y0	Z0	X1	Y1	Z1	X2	Y2	Z2	X3	Y3	Z3	X4	Y4	Z4	X5	Y5	Z5	X6	Y6	Z6	X7	Y7	Z7	X8	Y8	Z8	X9	Y9	Z9	X10	Y10	Z10	X11	Y11	Z11	X12	Y12	Z12	X13	Y13	Z13	X14	Y14	Z14	X15	Y15	Z15	X16	Y16	Z16	X17	Y17	Z17	X18	Y18	Z18	
100	0.833333	115.204	-23.1847	58.0851	94.4769	-29.2899	33.312	80.0498	-35.401	8.75531	77.0975	-47.0289	-14.8207	130.197	-32.8155	-17.5072	109.224	-45.965	-39.9993	87.9542	-63.771	-37.6941	135.573	-52.4252	-20.4983	109.166	-72.0772	-28.4882	87.7028	-81.0667	-0.416441	145.194	-69.0127	-11.149	118.044	-86.9012	-15.8162	101.749	-87.1386	16.0682	156.953	-82.2644	2.23466	134.591	-94.2001	-9.94208	113.352	-96.6246	13.437	168.604	-46.2668	35.5227	175.408	-48.2469	65.1447	153.575	-19.9095	48.1505	
101	0.841667	112.861	-19.6721	54.9103	95.573	-29.226	31.6058	77.4216	-31.4083	5.37913	69.0411	-41.0377	-10.8381	124.55	-29.1791	-20.1162	105.433	-42.8779	-38.6283	80.4066	-63.5379	-34.3893	131.586	-52.0015	-22.4746	105.54	-67.2758	-28.9904	82.2949	-78.4068	3.66761	139.036	-65.7689	-12.9389	113.813	-84.6543	-14.8268	97.8853	-84.0004	14.9427	151.613	-79.9361	2.83318	127.849	-93.3995	-7.74188	108.036	-93.4118	14.7709	167.868	-47.8628	37.3946	170.902	-46.0258	65.958	153.046	-20.9587	47.2099	
102	0.85	114.428	-21.0891	57.1365	92.2764	-25.7348	34.4292	74.6527	-29.4461	7.36421	67.7705	-40.5321	-7.64905	124.31	-30.3152	-16.9598	104.632	-44.3585	-37.369	78.1922	-62.0303	-33.6499	130.352	-51.2584	-20.5198	101.184	-69.7834	-27.6296	80.9342	-79.9905	6.50964	138.024	-67.9572	-10.3205	110.873	-83.8332	-14.8543	94.7012	-84.1123	14.996	147.301	-81.544	-0.593298	124.339	-94.2316	-6.56569	106.656	-93.6153	16.9894	166.034	-46.7702	31.4416	172.324	-46.8005	66.0617	152.464	-21.3659	47.5976	
103	0.858333	111.082	-17.8797	59.4856	91.6573	-25.5017	35.7125	75.826	-29.7266	10.8217	65.1167	-38.7649	-11.8653	122.445	-33.3675	-18.5309	98.4695	-44.5388	-37.4999	72.3176	-59.6097	-32.3808	128.639	-53.2194	-19.4503	97.5086	-67.1409	-26.7528	77.1154	-75.5045	3.69538	133.545	-67.5001	-12.4612	109.7	-84.4071	-13.8926	93.9164	-85.2647	15.8452	145.597	-83.9481	-0.788918	122.187	-93.6455	-7.0883	103.088	-92.3721	17.2874	165.973	-48.6213	32.7279	170.334	-45.0933	64.7807	148.831	-17.0595	48.1433	
104	0.866667	112.768	-22.2581	60.4062	88.3497	-24.077	34.821	74.9677	-30.4601	10.1992	65.028	-39.3877	-7.53924	119.494	-28.2643	-17.213	96.4898	-43.4378	-38.0892	74.2535	-62.4605	-32.1239	123.682	-49.2544	-22.2812	97.931	-69.0275	-26.8863	78.3058	-78.7942	4.58995	133.354	-69.0083	-12.0261	104.788	-83.666	-13.4449	94.3391	-86.1658	18.8064	145.784	-82.3778	1.1612	120.415	-95.415	-5.44269	101.29	-89.0841	21.2686	165.342	-47.0065	35.6348	169.483	-47.0543	65.946	148.812	-22.0949	49.2561	
105	0.875	112.281	-21.2398	58.4199	88.4226	-25.9253	35.1176	71.6356	-30.071	9.19886	63.6801	-40.1904	-10.2627	118.628	-31.4393	-18.9672	97.4149	-44.5929	-36.4709	74.1248	-61.4258	-32.6912	124.231	-52.0863	-20.9334	99.0965	-68.8602	-27.3907	77.5204	-78.6341	5.63463	130.437	-68.6293	-13.6944	103.849	-84.0535	-12.9343	91.5261	-85.8171	15.1204	144.826	-83.0819	0.610154	117.374	-94.0667	-5.05683	102.582	-91.5908	19.3205	163.704	-48.4269	32.4792	168.677	-45.077	63.8806	146.303	-20.1147	46.0151	
106	0.883333	110.305	-19.3125	59.4482	89.1294	-25.7228	36.3066	73.5923	-30.6894	9.40871	64.6104	-40.49	-6.61035	120.579	-35.6386	-17.4959	101.369	-47.835	-34.9867	73.9643	-65.577	-31.5307	125.741	-56.1503	-20.5772	97.7376	-72.8151	-25.7668	77.5487	-81.3277	9.2134	132.831	-69.4241	-12.8914	107.955	-85.5621	-13.98	92.4433	-85.9389	13.9017	147.299	-85.7182	3.16601	119.893	-99.0646	-3.63955	104.951	-97.8936	18.7521	168.023	-52.0829	32.8534	172.014	-49.8809	65.3765	149.011	-21.5877	45.3342	
107	0.891667	111.246	-21.7327	60.3664	93.0113	-31.1034	34.8559	75.9716	-34.1089	8.55882	63.8373	-41.1179	-8.9328	120.929	-33.4673	-17.3757	96.6855	-46.5485	-36.3031	71.824	-66.7964	-29.2603	125.358	-55.3901	-21.7399	98.2629	-71.7194	-25.1458	81.3723	-84.585	5.1279	134.509	-70.4286	-11.0857	109.101	-91.2246	-11.0839	94.4565	-87.7152	15.5209	147.573	-87.5315	0.856744	125.161	-99.2406	-6.63459	103.518	-95.8518	16.9481	167.711	-53.3045	34.191	171.106	-47.8967	62.5412	149.797	-22.3979	48.0729	
108	0.9	113.855	-25.2265	60.3308	91.4153	-30.2798	32.6395	73.331	-33.537	9.56195	66.0096	-43.4385	-9.96263	122.62	-35.1857	-16.07	97.5936	-50.8404	-36.1146	72.3633	-67.2971	-29.1633	128.701	-53.8331	-17.1761	102.169	-76.1122	-25.2118	80.5754	-83.2106	6.55893	134.548	-73.6842	-12.4605	110.86	-92.7566	-11.5316	95.6527	-91.4935	19.6386	147.109	-88.6345	-0.624412	125.92	-99.0683	-6.36188	104.02	-99.7415	17.7511	167.827	-55.0202	36.0637	170.727	-47.1761	63.5453	151.639	-22.6203	47.7703	
109	0.908333	112.794	-23.8054	59.0164	93.8682	-31.6133	35.3466	75.4144	-35.2709	7.41725	67.1354	-44.712	-11.3708	122.517	-34.3761	-15.1541	101.013	-48.8562	-34.5194	73.3136	-69.3318	-30.0039	128.303	-60.3997	-20.1882	99.6942	-73.2664	-24.6193	81.7748	-86.4722	5.93582	137.322	-77.1469	-10.6392	113.569	-93.3419	-12.7606	95.9833	-92.9629	16.8857	148.29	-87.1037	0.695358	123.838	-101.716	-4.83903	105.251	-97.8391	17.3401	167.384	-54.5127	35.8499	173.232	-51.1765	64.5052	150.555	-26.1172	49.6849	
110	0.916667	112.946	-23.8978	55.4306	92.0332	-32.2239	33.6504	73.7771	-33.5862	10.9691	64.1476	-43.4228	-12.0014	125.176	-39.0476	-15.0555	99.74	-53.5799	-34.5778	73.8982	-67.6494	-30.4644	129.209	-55.8056	-18.5598	99.2256	-77.9996	-23.2303	80.3041	-87.5646	7.14486	138.682	-75.5693	-8.9003	108.339	-91.2753	-12.0947	95.2922	-92.3645	13.8588	149.377	-89.1288	0.995201	124.916	-99.5341	-5.67292	104.695	-101.92	18.6442	168.522	-55.984	36.994	171	-51.7622	67.5214	152.143	-24.8712	46.7154	
111	0.925	114.884	-27.4067	56.7836	93.4033	-33.455	35.5852	74.8505	-34.37	12.6509	65.5723	-44.5923	-8.61021	124.025	-39.1656	-16.4448	99.4475	-53.308	-34.9699	73.5859	-67.9794	-29.324	130.116	-59.0099	-18.6523	100.9	-74.334	-25.7182	78.6235	-87.3792	8.3066	138.481	-77.2888	-9.79009	110.57	-90.9181	-12.4397	94.596	-92.9709	17.4836	149.038	-87.5249	3.80411	125.291	-101.22	-4.82435	106.344	-102.762	16.5969	166.571	-52.4169	32.906	173.519	-53.8107	64.9204	152.244	-24.347	50.7303	
112	0.933333	114.332	-27.0856	57.3635	95.0768	-35.397	33.0656	76.011	-36.8658	12.2764	64.6632	-46.1083	-9.54815	121.513	-37.5259	-15.2194	99.2345	-55.0489	-34.464	77.2499	-68.8753	-30.3759	125.182	-58.946	-20.5467	102.212	-77.4184	-25.4752	77.0412	-86.3085	6.08407	136.05	-75.1646	-11.7161	109.193	-93.0678	-12.1484	94.6309	-94.5559	18.9749	149.309	-90.6338	3.10173	124.513	-105.682	-4.18924	105.863	-102.467	18.5362	169.449	-54.9846	32.4506	172.999	-52.7852	64.098	150.284	-27.0288	48.5731	
113	0.941667	112.549	-25.5216	60.2146	90.4844	-32.9221	37.7464	74.3847	-36.2807	9.8269	63.8074	-45.7727	-6.70888	122.914	-39.5287	-15.4227	99.6863	-50.2743	-33.7647	74.5135	-73.2476	-29.7877	129.356	-62.2107	-17.4362	98.9924	-81.2509	-22.5295	79.0585	-88.075	3.65623	135.092	-75.371	-10.6361	111.779	-96.7136	-11.5319	93.6786	-94.7219	19.0999	147.823	-91.8532	0.618649	122.587	-102.308	-4.91153	106.042	-105.124	17.3049	166.521	-55.1101	32.6689	170.214	-52.3984	67.3663	149.508	-26.6701	51.0438	
114	0.95	112.256	-27.047	58.2514	92.6673	-34.286	37.9548	77.2442	-38.5946	14.257	66.0813	-46.5684	-9.02815	120.612	-38.2983	-15.7503	98.3377	-53.0958	-33.947	75.2749	-72.2398	-30.3127	128.637	-62.5269	-19.665	100.304	-75.859	-24.2371	78.8997	-86.5558	5.14964	135	-74.4318	-11.367	109.147	-95.6233	-10.681	95.9649	-97.1885	16.2059	150.238	-91.8785	2.2025	123.384	-104.201	-4.27542	107.023	-105.172	17.6793	168.604	-55.2983	37.5043	170.724	-50.1193	62.7854	148.342	-25.8592	51.7223	
115	0.958333	111.971	-26.3994	62.6869	90.2499	-32.5147	38.2298	74.3074	-36.1961	14.4124	66.7916	-47.5716	-6.75154	123.058	-38.9923	-14.3641	97.9513	-52.0271	-34.6427	70.7821	-68.8309	-29.2522	127.088	-58.4449	-19.139	97.644	-79.7747	-22.2919	77.5957	-85.1914	11.2011	138.075	-76.2935	-7.87167	109.869	-91.8634	-12.3775	96.4301	-95.2848	18.0995	147.153	-88.6904	1.42361	122.498	-100.437	-4.23964	105.204	-100.183	16.7011	166.79	-54.5186	37.6581	169.806	-51.3326	65.8762	152.017	-26.7394	48.8292	
116	0.966667	114.897	-28.1868	59.0803	91.0596	-33.0431	36.3479	72.7181	-34.8852	12.121	65.0648	-44.3834	-4.65361	121.926	-37.5074	-15.0198	95.1046	-50.0971	-35.2785	72.4899	-70.6235	-28.2388	124.407	-56.4377	-20.3259	97.4275	-78.0716	-21.6648	80.5704	-85.9968	10.2583	133.344	-74.7116	-11.4639	109.361	-92.5592	-11.8916	96.0335	-92.831	16.9163	145.989	-86.3846	0.228153	125.289	-100.79	-6.29871	104.33	-96.7445	17.2186	165.405	-53.028	32.7334	171.352	-49.3023	67.3211	150.712	-23.4946	51.395	
117	0.975	114.359	-28.1478	58.7295	89.7989	-30.884	37.6273	76.5645	-37.2431	12.1299	62.7636	-43.7941	-8.57957	117.921	-34.4298	-18.5898	94.8737	-47.2886	-34.4087	71.2323	-66.7516	-28.5355	124.375	-55.6544	-20.157	98.1985	-70.6972	-25.483	79.466	-82.8543	9.45398	134.013	-75.3635	-11.2411	107.927	-89.8816	-11.5588	92.9154	-87.9989	20.0527	144.818	-89.6301	-1.65332	123.296	-100.22	-6.83552	102.163	-96.0576	18.3244	164.447	-52.3484	32.571	170.738	-54.4487	66.0514	149.416	-25.3656	46.1195	
118	0.983333	112.711	-24.3426	60.561	90.9831	-31.6088	33.7341	73.0533	-35.0524	13.3566	63.934	-44.8655	-8.5033	118.926	-32.9025	-15.4042	95.0178	-45.6064	-34.3988	69.1499	-63.5306	-27.524	124.812	-53.7858	-17.9391	96.5918	-70.422	-25.2714	80.4666	-83.5963	9.05254	131.267	-76.14	-13.0777	104.298	-91.2465	-8.84945	90.8467	-86.5504	19.0274	145.442	-87.353	2.23103	118.552	-102.135	-4.2061	101.824	-97.6124	15.2177	166.183	-53.2438	34.5892	170.253	-53.9991	64.8194	151.106	-24.9587	45.6113	
119	0.991667	111.429	-24.8614	58.9346	88.7429	-30.0544	35.2355	73.8735	-35.6965	13.1817	63.0618	-46.3641	-6.34083	117.308	-31.9011	-14.7069	93.5934	-49.0082	-33.1262	69.3472	-64.2833	-24.7289	121.747	-54.8753	-21.0243	93.5345	-71.4536	-23.2955	80.2039	-82.2013	8.7075	130.501	-70.9648	-10.5547	102.935	-89.967	-8.74904	91.0099	-86.0108	17.2638	145.579	-88.4126	2.75781	117.554	-98.5518	-5.62037	99.5415	-96.4403	15.7544	162.612	-51.6515	35.4186	168.529	-49.5064	61.6903	146.752	-22.9108	46.9216	
